<svg width="24" height="24" viewBox="0 0 24 24" fill="none" xmlns="http://www.w3.org/2000/svg">
<path fill-rule="evenodd" clip-rule="evenodd" d="M16.334 2.75012H7.665C4.644 2.75012 2.75 4.88912 2.75 7.91612V16.0841C2.75 19.1111 4.635 21.2501 7.665 21.2501H16.333C19.364 21.2501 21.25 19.1111 21.25 16.0841V7.91612C21.25 4.88912 19.364 2.75012 16.334 2.75012Z" stroke="#3D3D3D" stroke-width="1.5" stroke-linecap="round" stroke-linejoin="round"/>
<path d="M11.9947 13.5C11.9947 13.5 11.802 12.5188 12.5 11.5C13 10.7703 14 10.5 14 9C14 8.83961 14 6.99999 12 7C10 7.00001 10 9 10 9" stroke="#3D3D3D" stroke-width="1.5" stroke-linecap="round" stroke-linejoin="round"/>
<path d="M11.9899 16.5H11.9999" stroke="#3D3D3D" stroke-width="2" stroke-linecap="round" stroke-linejoin="round"/>
</svg>
