<svg width="24" height="24" viewBox="0 0 24 24" fill="none" xmlns="http://www.w3.org/2000/svg">
<path d="M15.8325 8.17463L10.109 13.9592L3.59944 9.88767C2.66675 9.30414 2.86077 7.88744 3.91572 7.57893L19.3712 3.05277C20.3373 2.76963 21.2326 3.67283 20.9456 4.642L16.3731 20.0868C16.0598 21.1432 14.6512 21.332 14.0732 20.3953L10.106 13.9602" stroke="#3D3D3D" stroke-width="1.5" stroke-linecap="round" stroke-linejoin="round"/>
<path d="M8.53033 16.5303C8.82322 16.2374 8.82322 15.7626 8.53033 15.4697C8.23744 15.1768 7.76256 15.1768 7.46967 15.4697L8.53033 16.5303ZM3.46967 19.4697C3.17678 19.7626 3.17678 20.2374 3.46967 20.5303C3.76256 20.8232 4.23744 20.8232 4.53033 20.5303L3.46967 19.4697ZM7.46967 15.4697L3.46967 19.4697L4.53033 20.5303L8.53033 16.5303L7.46967 15.4697Z" fill="#3D3D3D"/>
<path d="M5.53033 14.5303C5.82322 14.2374 5.82322 13.7626 5.53033 13.4697C5.23744 13.1768 4.76256 13.1768 4.46967 13.4697L5.53033 14.5303ZM3.46967 14.4697C3.17678 14.7626 3.17678 15.2374 3.46967 15.5303C3.76256 15.8232 4.23744 15.8232 4.53033 15.5303L3.46967 14.4697ZM4.46967 13.4697L3.46967 14.4697L4.53033 15.5303L5.53033 14.5303L4.46967 13.4697Z" fill="#3D3D3D"/>
<path d="M9.53033 20.5303C9.82322 20.2374 9.82322 19.7626 9.53033 19.4697C9.23744 19.1768 8.76256 19.1768 8.46967 19.4697L9.53033 20.5303ZM7.46967 20.4697C7.17678 20.7626 7.17678 21.2374 7.46967 21.5303C7.76256 21.8232 8.23744 21.8232 8.53033 21.5303L7.46967 20.4697ZM8.46967 19.4697L7.46967 20.4697L8.53033 21.5303L9.53033 20.5303L8.46967 19.4697Z" fill="#3D3D3D"/>
</svg>
